<svg width="21" height="23" viewBox="0 0 21 23" fill="none" xmlns="http://www.w3.org/2000/svg">
<path d="M19.0015 16.77C18.8302 16.7795 18.6684 16.7795 18.4971 16.7795C15.7276 16.7795 13.12 15.7041 11.1595 13.7436C9.19898 11.7831 8.12356 9.17544 8.12356 6.406C8.12356 4.82618 8.47568 3.30346 9.13236 1.9235C9.42738 1.31441 9.77951 0.733875 10.1887 0.191406C9.46545 0.267542 8.77071 0.419813 8.095 0.629187C3.64105 2.0377 0.414795 6.19663 0.414795 11.1169C0.414795 17.1887 5.33508 22.109 11.4069 22.109C14.7664 22.109 17.7643 20.6053 19.7819 18.2356C20.2387 17.6931 20.6574 17.1031 21 16.475C20.3529 16.6368 19.6867 16.7414 19.0015 16.77Z" fill="#8B8E9C"/>
</svg>
